<svg xmlns="http://www.w3.org/2000/svg" xmlns:xlink="http://www.w3.org/1999/xlink" width="160" height="160"><title>JSON logo</title><defs><linearGradient id="a"><stop offset="0"/><stop offset="1" stop-color="#fff"/></linearGradient><linearGradient x1="-553.27" y1="525.908" x2="-666.116" y2="413.045" id="c" xlink:href="#a" gradientUnits="userSpaceOnUse" gradientTransform="matrix(.999 0 0 .999 689.008 -388.844)"/><linearGradient x1="-666.117" y1="413.045" x2="-553.27" y2="525.908" id="b" xlink:href="#a" gradientUnits="userSpaceOnUse" gradientTransform="matrix(.999 0 0 .999 689.008 -388.844)"/></defs><path d="M79.865 119.1c35.398 48.255 70.04-13.469 69.989-50.587-.06-43.886-44.541-68.414-70.018-68.414-40.892 0-79.836 33.796-79.836 80.036 0 51.396 44.64 79.865 79.836 79.865-7.964-1.147-34.506-6.834-34.863-67.967-.24-41.347 13.488-57.866 34.805-50.599.477.177 23.514 9.265 23.514 38.951 0 29.56-23.427 38.715-23.427 38.715z" color="#000" fill="url(#b)" fill-rule="evenodd" overflow="visible"/><path d="M79.823 41.401c-23.39-8.062-52.043 11.216-52.043 49.829 0 63.048 46.721 68.77 52.384 68.77 40.892 0 79.836-33.796 79.836-80.036 0-51.396-44.64-79.865-79.836-79.865 9.748-1.35 52.541 10.55 52.541 69.037 0 38.141-31.953 58.905-52.735 50.033-.477-.177-23.514-9.265-23.514-38.951 0-29.56 23.367-38.818 23.367-38.818z" color="#000" fill="url(#c)" fill-rule="evenodd" overflow="visible"/></svg>
